# xmcd CD database file
#
# Track frame offsets:
#	150
#	15382
#	35637
#	53392
#	69261
#	86840
#	101509
#	114716
#	128429
#	140351
#	155430
#
# Disc length: 2241 seconds
#
# Revision: 0
# Processed by: cddbd v1.5.2PL0 Copyright (c) Steve Scherf et al.
# Submitted via: CDex 1.70
#
DISCID=8208bf0b
DTITLE=Thomas Michael Rilly - Can You Hear Me Now
DYEAR=1900
DGENRE=Country
TTITLE0=Ten Toes Up
TTITLE1=Raise 'Em High
TTITLE2=Pirates And Palapas
TTITLE3=On The Passenger Side
TTITLE4=The List
TTITLE5=Me 'En Jesus
TTITLE6=Too Far From Tupelo
TTITLE7=Catchin' A Buzz
TTITLE8=Hooty Hoo
TTITLE9=Before You Go
TTITLE10=The Real Me
EXTD=
EXTT0=
EXTT1=
EXTT2=
EXTT3=
EXTT4=
EXTT5=
EXTT6=
EXTT7=
EXTT8=
EXTT9=
EXTT10=
PLAYORDER=
